<svg width="147" height="138" viewBox="0 0 147 138" fill="none" xmlns="http://www.w3.org/2000/svg">
<path d="M65.9639 14.5916C68.4777 9.2054 76.1366 9.20539 78.6503 14.5915L92.8682 45.0561C93.5635 46.546 94.7611 47.7436 96.251 48.4389L126.716 62.6568C132.102 65.1705 132.102 72.8295 126.716 75.3432L96.251 89.5611C94.7611 90.2564 93.5635 91.454 92.8682 92.9439L78.6503 123.408C76.1366 128.795 68.4777 128.795 65.9639 123.408L51.7461 92.9439C51.0507 91.454 49.8531 90.2564 48.3633 89.5611L17.8987 75.3432C12.5125 72.8295 12.5125 65.1705 17.8987 62.6568L48.3632 48.4389C49.8531 47.7436 51.0507 46.546 51.7461 45.0561L65.9639 14.5916Z" fill="white"/>
<path d="M97.399 42.9416L83.1812 12.477C78.8719 3.24356 65.7423 3.2436 61.4331 12.477L47.2152 42.9416C47.0165 43.3672 46.6744 43.7094 46.2487 43.9081L15.7841 58.1259C6.55069 62.4352 6.55073 75.5648 15.7841 79.8741L46.2487 94.0919C46.6744 94.2906 47.0165 94.6328 47.2152 95.0584L61.4331 125.523C65.7423 134.756 78.8719 134.756 83.1812 125.523L97.399 95.0584C97.5977 94.6328 97.9399 94.2906 98.3656 94.0919L128.83 79.8741C138.064 75.5648 138.064 62.4352 128.83 58.1259L98.3656 43.9081C97.9399 43.7094 97.5977 43.3672 97.399 42.9416Z" stroke="white" stroke-opacity="0.3" stroke-width="10"/>
<path d="M93.9203 44.4218L79.7025 13.9572C76.6501 7.41684 67.3499 7.41686 64.2975 13.9572L50.0797 44.4218C49.5333 45.5924 48.5924 46.5333 47.4218 47.0797L16.9572 61.2975C10.4168 64.3499 10.4169 73.6501 16.9572 76.7025L47.4218 90.9203C48.5924 91.4667 49.5333 92.4076 50.0797 93.5782L64.2975 124.043C67.3499 130.583 76.6501 130.583 79.7025 124.043L93.9203 93.5782C94.4667 92.4076 95.4076 91.4667 96.5782 90.9203L127.043 76.7025C133.583 73.6501 133.583 64.3499 127.043 61.2975L96.5782 47.0797C95.4076 46.5333 94.4667 45.5924 93.9203 44.4218Z" fill="#FFF950" stroke="#FFCC00" stroke-width="3"/>
<path d="M139.282 44.1477C140.104 46.2509 139.271 49.0325 136.726 52.3677C134.202 55.6754 130.096 59.3902 124.7 63.2785C113.914 71.0507 98.0707 79.4494 79.7266 86.6199C61.3826 93.7904 44.0433 98.3626 30.8459 99.9652C24.2433 100.767 18.7063 100.822 14.6085 100.102C10.4766 99.3769 7.97768 97.8979 7.15555 95.7947C6.33342 93.6914 7.16694 90.9099 9.71155 87.5747C12.2352 84.2669 16.3416 80.5522 21.7376 76.6638C32.5234 68.8916 48.3669 60.493 66.711 53.3224C85.055 46.1519 102.394 41.5797 115.592 39.9771C122.194 39.1754 127.731 39.1206 131.829 39.84C135.961 40.5655 138.46 42.0444 139.282 44.1477Z" stroke="white"/>
<path d="M138.816 44.3297C139.537 46.1731 138.852 48.7574 136.328 52.0644C133.847 55.3164 129.785 58.9977 124.408 62.8729C113.665 70.6141 97.8612 78.9944 79.5446 86.1542C61.228 93.314 43.9305 97.8727 30.7856 99.4689C24.2055 100.268 18.7237 100.317 14.695 99.6098C10.5981 98.8905 8.34183 97.4561 7.62124 95.6126C6.90065 93.7692 7.58602 91.1849 10.1091 87.8779C12.5902 84.626 16.6522 80.9446 22.0299 77.0695C32.7727 69.3282 48.5764 60.9479 66.893 53.7881C85.2096 46.6283 102.507 42.0697 115.652 40.4735C122.232 39.6744 127.714 39.6252 131.743 40.3325C135.839 41.0518 138.096 42.4862 138.816 44.3297Z" stroke="white" stroke-width="2"/>
<path d="M91.274 43.1447L78.1793 14.7715C75.6768 9.34922 67.9702 9.34922 65.4678 14.7715L51.4065 45.2392C50.7175 46.7319 49.5251 47.9346 48.0383 48.6363L17.7206 62.9446C12.3707 65.4694 12.3707 73.0806 17.7206 75.6054L45.859 88.8852C48.544 90.1524 51.7363 89.5879 53.824 87.4769L89.8955 51C91.9476 48.9249 92.4969 45.7944 91.274 43.1447Z" fill="#FFF950"/>
</svg>
